<?xml version="1.0" standalone="no"?>
<!DOCTYPE svg PUBLIC "-//W3C//DTD SVG 20010904//EN"
 "http://www.w3.org/TR/2001/REC-SVG-20010904/DTD/svg10.dtd">
<svg version="1.0" xmlns="http://www.w3.org/2000/svg"
 width="260.000000pt" height="260.000000pt" viewBox="0 0 260.000000 260.000000"
 preserveAspectRatio="xMidYMid meet">
<metadata>
Created by potrace 1.11, written by Peter Selinger 2001-2013
</metadata>
<g transform="translate(0.000000,260.000000) scale(0.100000,-0.100000)"
fill="#000000" stroke="none">
<path d="M1132 2590 c-301 -43 -565 -179 -775 -400 -171 -180 -278 -385 -333
-641 -26 -118 -26 -380 0 -498 59 -273 167 -474 360 -667 193 -193 394 -301
667 -360 118 -26 380 -26 498 0 273 59 474 167 667 360 193 193 301 394 360
667 14 62 18 127 18 249 0 122 -4 187 -18 249 -59 273 -167 474 -360 667 -190
189 -384 296 -646 355 -98 22 -340 33 -438 19z m-82 -718 c879 -508 836 -482
852 -517 6 -14 15 -25 20 -25 4 0 8 -11 8 -25 0 -14 -4 -25 -8 -25 -4 0 -13
-13 -19 -29 -12 -34 -19 -38 -293 -196 -562 -325 -704 -405 -722 -405 -35 0
-82 29 -105 65 -24 36 -31 85 -13 85 6 0 10 6 10 13 0 25 44 55 305 207 143
84 309 182 368 217 l109 65 -174 102 c-95 57 -261 153 -368 215 -199 116 -240
144 -240 168 0 7 -4 13 -10 13 -35 0 13 110 59 135 49 27 80 18 221 -63z"/>
</g>
</svg>
