<?xml version="1.0" encoding="utf-8"?>
<!-- Generator: Adobe Illustrator 19.0.1, SVG Export Plug-In . SVG Version: 6.00 Build 0)  -->
<svg xmlns="http://www.w3.org/2000/svg" xmlns:xlink="http://www.w3.org/1999/xlink"
	 viewBox="-825 479 269 124">
<path d="M-825,479l22.5,14.2l-22.5,14.2V479z M-754.8,480.2l22.5,14.2l-22.5,14.2V480.2L-754.8,480.2z M-719.4,481.2l22.5,14.2
	l-22.5,14.2V481.2L-719.4,481.2z M-684.2,481.4l22.5,14.2l-22.5,14.2V481.4L-684.2,481.4z M-648.8,482.5l22.5,14.2l-22.5,14.2V482.5
	L-648.8,482.5z M-613.9,482.6l22.5,14.2l-22.5,14.2V482.6L-613.9,482.6z M-578.5,483.6l22.5,14.2l-22.5,14.2V483.6L-578.5,483.6z
	 M-825,526l22.5,14.2l-22.5,14.2V526z M-789.6,527.1l22.5,14.2l-22.5,14.2V527.1L-789.6,527.1z M-754.8,527.2l22.5,14.2l-22.5,14.2
	V527.2z M-719.4,528.2l22.5,14.2l-22.5,14.2V528.2L-719.4,528.2z M-684.2,528.4l22.5,14.2l-22.5,14.2V528.4L-684.2,528.4z
	 M-648.8,529.5l22.5,14.2l-22.5,14.2V529.5L-648.8,529.5z M-613.9,529.6l22.5,14.2l-22.5,14.2V529.6z M-578.5,530.6l22.5,14.2
	l-22.5,14.2V530.6L-578.5,530.6z M-825,570l22.5,14.2l-22.5,14.2V570z M-789.6,571.1l22.5,14.2l-22.5,14.2V571.1L-789.6,571.1z
	 M-754.8,571.2l22.5,14.2l-22.5,14.2V571.2z M-719.4,572.2l22.5,14.2l-22.5,14.2V572.2L-719.4,572.2z M-684.2,572.4l22.5,14.2
	l-22.5,14.2V572.4L-684.2,572.4z M-648.8,573.5l22.5,14.2l-22.5,14.2V573.5z M-613.9,573.6l22.5,14.2l-22.5,14.2V573.6z
	 M-578.5,574.6l22.5,14.2l-22.5,14.2V574.6L-578.5,574.6z" fill="#fff"/>
</svg>
